<svg width="164" height="314" viewBox="0 0 164 314" fill="none" xmlns="http://www.w3.org/2000/svg">
<rect width="164" height="314" fill="#123A6F"/>
<path d="M81.4844 168.937C67.8787 159.603 63.3216 168.891 63.3216 168.891C63.0099 169.514 62.8739 170.291 62.8739 170.894C62.8739 180.228 71.318 187.756 81.6394 187.756C91.9608 187.756 100.407 180.228 100.407 170.894C100.407 170.291 100.25 169.69 100.25 168.937C100.25 168.937 94.9334 178.272 81.4844 168.937Z" fill="white" fill-opacity="0.95"/>
<path d="M107.423 171.762C107.423 185.08 95.7288 195.963 81.4359 195.963C67.143 195.963 55.449 185.08 55.449 171.762C55.449 158.443 81.4359 118 81.4359 118C81.4359 118 107.423 158.443 107.423 171.762Z" stroke="white" stroke-opacity="0.95" stroke-width="2.4"/>
</svg>
