<?xml version="1.0" standalone="no"?><!-- Generator: Gravit.io --><svg xmlns="http://www.w3.org/2000/svg" xmlns:xlink="http://www.w3.org/1999/xlink" style="isolation:isolate" viewBox="-16.5 0 180.5 314" width="180.5" height="314"><linearGradient id="_lgradient_0" x1="97.3170731707317%" y1="97.94055201698504%" x2="3.4146341463414775%" y2="1.9745222929935635%"><stop offset="0%" stop-opacity="1" style="stop-color:rgb(36,118,226)"/><stop offset="100%" stop-opacity="1" style="stop-color:rgb(18,58,111)"/></linearGradient><rect x="0" y="0" width="164" height="314" transform="matrix(1,0,0,1,0,0)" fill="url(#_lgradient_0)"/><linearGradient id="_lgradient_1" x1="-1.07935590224154%" y1="32.34738784937983%" x2="101.35636894360354%" y2="100.73167668877639%"><stop offset="0%" stop-opacity="1" style="stop-color:rgb(235,235,235)"/><stop offset="100%" stop-opacity="1" style="stop-color:rgb(179,179,179)"/></linearGradient><rect x="-8" y="173" width="135" height="91" transform="matrix(1,0,0,1,0,0)" fill="url(#_lgradient_1)"/><rect x="-2" y="260" width="130" height="4" transform="matrix(1,0,0,1,0,0)" fill="rgb(68,72,76)"/><rect x="-14" y="171" width="143" height="95" transform="matrix(1,0,0,1,0,0)" fill="none" vector-effect="non-scaling-stroke" stroke-width="5" stroke="rgb(255,255,255)" stroke-linejoin="round" stroke-linecap="round" stroke-miterlimit="3"/><g id="Rainmeter_176Page"><path d=" M 133.178 56.216 C 133.178 63.949 126.388 70.268 118.089 70.268 C 109.79 70.268 103 63.949 103 56.216 C 103 48.483 118.089 25 118.089 25 C 118.089 25 133.178 48.483 133.178 56.216 Z " fill="rgb(240,240,255)" vector-effect="non-scaling-stroke" stroke-width="2.829" stroke="rgb(42,109,155)" stroke-linejoin="miter" stroke-linecap="butt" stroke-miterlimit="4"/><path d=" M 118.209 54.423 C 110.309 49.003 107.663 54.396 107.663 54.396 C 107.482 54.758 107.403 55.209 107.403 55.559 C 107.403 60.979 112.306 65.35 118.299 65.35 C 124.292 65.35 129.196 60.979 129.196 55.559 C 129.196 55.209 129.105 54.86 129.105 54.423 C 129.105 54.423 126.018 59.843 118.209 54.423 L 118.209 54.423 Z " fill="rgb(224,144,40)"/><g id="g872"><path d=" M 121.08 77 C 121.049 77 120.986 77 120.955 77 C 120.924 77 120.862 77 120.83 77 C 120.799 77 120.768 77 120.706 77 C 120.644 77 120.612 77 120.581 77" fill="rgb(42,109,155)"/></g></g><g style="mix-blend-mode:normal;" opacity="0.8"><path d="M 110 175 L 124 175 C 124.552 175 125 175.448 125 176 L 125 182 C 125 182.552 124.552 183 124 183 L 110 183 C 109.448 183 109 182.552 109 182 L 109 176 C 109 175.448 109.448 175 110 175 Z" style="stroke:none;fill:#333840;stroke-miterlimit:10;"/><clipPath id="_clipPath_y7LSNNa6IrYNnJCyoaGeLNxcEG9OHrfa"><g style="mix-blend-mode:normal;" opacity="0.8"><path d="M 110 175 L 124 175 C 124.552 175 125 175.448 125 176 L 125 182 C 125 182.552 124.552 183 124 183 L 110 183 C 109.448 183 109 182.552 109 182 L 109 176 C 109 175.448 109.448 175 110 175 Z" style="stroke:black;fill:white;stroke-miterlimit:10;"/></g></clipPath><g clip-path="url(#_clipPath_y7LSNNa6IrYNnJCyoaGeLNxcEG9OHrfa)"><rect x="109" y="175" width="16" height="3" transform="matrix(1,0,0,1,0,0)" fill="rgb(36,40,45)"/><g id="Group"><rect x="113" y="176" width="8" height="1" transform="matrix(1,0,0,1,0,0)" fill="rgb(255,255,255)"/><rect x="110" y="179" width="8" height="1" transform="matrix(1,0,0,1,0,0)" fill="rgb(255,255,255)"/><rect x="120" y="179" width="4" height="1" transform="matrix(1,0,0,1,0,0)" fill="rgb(249,236,168)"/><rect x="120" y="181" width="4" height="1" transform="matrix(1,0,0,1,0,0)" fill="rgb(249,236,168)"/><rect x="110" y="181" width="8" height="1" transform="matrix(1,0,0,1,0,0)" fill="rgb(255,255,255)"/></g></g></g><g style="mix-blend-mode:normal;" opacity="0.8"><path d="M 30 208 L 67 208 C 67.552 208 68 208.448 68 209 L 68 228 C 68 228.552 67.552 229 67 229 L 30 229 C 29.448 229 29 228.552 29 228 L 29 209 C 29 208.448 29.448 208 30 208 Z" style="stroke:none;fill:#333840;stroke-miterlimit:10;"/><clipPath id="_clipPath_ZSZRS4O2HFWCj2fX3xyBugD6UeCpW58a"><g style="mix-blend-mode:normal;" opacity="0.8"><path d="M 30 208 L 67 208 C 67.552 208 68 208.448 68 209 L 68 228 C 68 228.552 67.552 229 67 229 L 30 229 C 29.448 229 29 228.552 29 228 L 29 209 C 29 208.448 29.448 208 30 208 Z" style="stroke:black;fill:white;stroke-miterlimit:10;"/></g></clipPath><g clip-path="url(#_clipPath_ZSZRS4O2HFWCj2fX3xyBugD6UeCpW58a)"><rect x="29" y="208" width="39" height="3" transform="matrix(1,0,0,1,0,0)" fill="rgb(36,40,45)"/><g id="Group"><rect x="31" y="209" width="15" height="1" transform="matrix(1,0,0,1,0,0)" fill="rgb(255,255,255)"/><rect x="30" y="214" width="16" height="1" transform="matrix(1,0,0,1,0,0)" fill="rgb(255,255,255)"/><rect x="30" y="216" width="15" height="1" transform="matrix(1,0,0,1,0,0)" fill="rgb(255,255,255)"/><rect x="30" y="218" width="16" height="1" transform="matrix(1,0,0,1,0,0)" fill="rgb(255,255,255)"/><rect x="30" y="220" width="16" height="1" transform="matrix(1,0,0,1,0,0)" fill="rgb(255,255,255)"/><rect x="30" y="222" width="15" height="1" transform="matrix(1,0,0,1,0,0)" fill="rgb(255,255,255)"/><rect x="30" y="224" width="17" height="1" transform="matrix(1,0,0,1,0,0)" fill="rgb(255,255,255)"/><rect x="30" y="226" width="11" height="1" transform="matrix(1,0,0,1,0,0)" fill="rgb(255,255,255)"/><rect x="30" y="211.992" width="15" height="1" transform="matrix(1,0,0,1,0,0)" fill="rgb(249,236,168)"/><rect x="50" y="212" width="13" height="1" transform="matrix(1,0,0,1,0,0)" fill="rgb(249,236,168)"/><rect x="50" y="221" width="8" height="1" transform="matrix(1,0,0,1,0,0)" fill="rgb(249,236,168)"/><rect x="50" y="225" width="9" height="1" transform="matrix(1,0,0,1,0,0)" fill="rgb(249,236,168)"/><rect x="50" y="223" width="8" height="1" transform="matrix(1,0,0,1,0,0)" fill="rgb(249,236,168)"/><rect x="50" y="215" width="17" height="1" transform="matrix(1,0,0,1,0,0)" fill="rgb(255,255,255)"/><rect x="50" y="217" width="17" height="1" transform="matrix(1,0,0,1,0,0)" fill="rgb(255,255,255)"/><rect x="50" y="219" width="6" height="1" transform="matrix(1,0,0,1,0,0)" fill="rgb(255,255,255)"/><rect x="47.984" y="211.993" width="1.016" height="16.008" transform="matrix(1,0.002,-0.002,1,0.459,-0.101)" fill="rgb(255,255,255)"/></g></g></g><g style="mix-blend-mode:normal;" opacity="0.8"><path d="M 109.866 200 L 124.134 200 C 124.612 200 125 200.388 125 200.866 L 125 205.134 C 125 205.612 124.612 206 124.134 206 L 109.866 206 C 109.388 206 109 205.612 109 205.134 L 109 200.866 C 109 200.388 109.388 200 109.866 200 Z" style="stroke:none;fill:#333840;stroke-miterlimit:10;"/><clipPath id="_clipPath_xRtzjomlFGhgXIbURtzqJVKLus9VCLDd"><g style="mix-blend-mode:normal;" opacity="0.8"><path d="M 109.866 200 L 124.134 200 C 124.612 200 125 200.388 125 200.866 L 125 205.134 C 125 205.612 124.612 206 124.134 206 L 109.866 206 C 109.388 206 109 205.612 109 205.134 L 109 200.866 C 109 200.388 109.388 200 109.866 200 Z" style="stroke:black;fill:white;stroke-miterlimit:10;"/></g></clipPath><g clip-path="url(#_clipPath_xRtzjomlFGhgXIbURtzqJVKLus9VCLDd)"><rect x="109" y="200" width="16" height="3" transform="matrix(1,0,0,1,0,0)" fill="rgb(36,40,45)"/><g id="Group"><rect x="113" y="201" width="8" height="1" transform="matrix(1,0,0,1,0,0)" fill="rgb(255,255,255)"/><rect x="110" y="204" width="14" height="1" transform="matrix(1,0,0,1,0,0)" fill="rgb(255,255,255)"/></g></g></g><g style="mix-blend-mode:normal;" opacity="0.8"><path d="M 110.369 184 L 123.631 184 C 124.386 184 125 184.614 125 185.369 L 125 197.631 C 125 198.386 124.386 199 123.631 199 L 110.369 199 C 109.614 199 109 198.386 109 197.631 L 109 185.369 C 109 184.614 109.614 184 110.369 184 Z" style="stroke:none;fill:#333840;stroke-miterlimit:10;"/><clipPath id="_clipPath_6LvGt1ayfADCoBW0b81kXJoj8f164oiX"><g style="mix-blend-mode:normal;" opacity="0.8"><path d="M 110.369 184 L 123.631 184 C 124.386 184 125 184.614 125 185.369 L 125 197.631 C 125 198.386 124.386 199 123.631 199 L 110.369 199 C 109.614 199 109 198.386 109 197.631 L 109 185.369 C 109 184.614 109.614 184 110.369 184 Z" style="stroke:black;fill:white;stroke-miterlimit:10;"/></g></clipPath><g clip-path="url(#_clipPath_6LvGt1ayfADCoBW0b81kXJoj8f164oiX)"><rect x="109" y="184" width="16" height="3" transform="matrix(1,0,0,1,0,0)" fill="rgb(36,40,45)"/><g id="Group"><rect x="113" y="185" width="8" height="1" transform="matrix(1,0,0,1,0,0)" fill="rgb(255,255,255)"/><rect x="110" y="188" width="5" height="1" transform="matrix(1,0,0,1,0,0)" fill="rgb(255,255,255)"/><rect x="110" y="192" width="6" height="1" transform="matrix(1,0,0,1,0,0)" fill="rgb(255,255,255)"/><rect x="110" y="194" width="7" height="1" transform="matrix(1,0,0,1,0,0)" fill="rgb(255,255,255)"/><rect x="121" y="188" width="3" height="1" transform="matrix(1,0,0,1,0,0)" fill="rgb(249,236,168)"/><rect x="121" y="190" width="3" height="1" transform="matrix(1,0,0,1,0,0)" fill="rgb(249,236,168)"/><rect x="110" y="190" width="5" height="1" transform="matrix(1,0,0,1,0,0)" fill="rgb(255,255,255)"/></g><g id="Group"><rect x="113" y="185" width="8" height="1" transform="matrix(1,0,0,1,0,0)" fill="rgb(255,255,255)"/><rect x="110" y="188" width="5" height="1" transform="matrix(1,0,0,1,0,0)" fill="rgb(255,255,255)"/><rect x="110" y="192" width="6" height="1" transform="matrix(1,0,0,1,0,0)" fill="rgb(255,255,255)"/><rect x="110" y="194" width="7" height="1" transform="matrix(1,0,0,1,0,0)" fill="rgb(255,255,255)"/><rect x="121" y="188" width="3" height="1" transform="matrix(1,0,0,1,0,0)" fill="rgb(249,236,168)"/><rect x="121" y="190" width="3" height="1" transform="matrix(1,0,0,1,0,0)" fill="rgb(249,236,168)"/><rect x="121" y="192" width="3" height="1" transform="matrix(1,0,0,1,0,0)" fill="rgb(249,236,168)"/><rect x="122" y="194" width="2" height="1" transform="matrix(1,0,0,1,0,0)" fill="rgb(249,236,168)"/><rect x="110" y="190" width="5" height="1" transform="matrix(1,0,0,1,0,0)" fill="rgb(255,255,255)"/></g></g></g><path d=" M 22 273 L 23 275 L 72 275 L 73 273 L 150 273 L 150 277 C 150 279.208 148.208 281 146 281 L -1 281 L -1 273 L 22 273 Z " fill="rgb(255,255,255)" vector-effect="non-scaling-stroke" stroke-width="1" stroke="rgb(255,255,255)" stroke-linejoin="round" stroke-linecap="square" stroke-miterlimit="3"/></svg>